# xmcd
#
# Track frame offsets:
#	150
#	9824
#	22901
#	34099
#	44968
#	53967
#	63964
#	77941
#	96185
#	107749
#	120315
#	134822
#	148235
#	161267
#	175325
#	188409
#
# Disc length: 2712 seconds
#
# Revision: 0
# Processed by: cddbd v1.5.2PL0 Copyright (c) Steve Scherf et al.
# Submitted via: EasyCDDAExtractor 16.0.6.1
#
DISCID=d50a9610
DTITLE=Johnny Hallyday - Johnny Hallyday Album "Les 50 Plus Belles Chansons"
DYEAR=1900
DGENRE=
TTITLE0=Viens Danser Le Twist
TTITLE1=Retiens La Nuit
TTITLE2=L'idole Des Jeunes
TTITLE3=Tes Tendres Années
TTITLE4=Elle Est Terrible
TTITLE5=Pour Moi La Vie Va Commencer
TTITLE6=Excuse-Moi Partenaire
TTITLE7=Le Pénitencier
TTITLE8=Quand Revient La Nuit
TTITLE9=Les Coups
TTITLE10=Noir C'est Noir
TTITLE11=La Fille A Qui Je Pense
TTITLE12=Je Veux Te Graver Dans Ma Vie
TTITLE13=Hey Joe
TTITLE14=Aussi Dur Que Du Bois
TTITLE15=Que Je T'aime
EXTD=
EXTT0=
EXTT1=
EXTT2=
EXTT3=
EXTT4=
EXTT5=
EXTT6=
EXTT7=
EXTT8=
EXTT9=
EXTT10=
EXTT11=
EXTT12=
EXTT13=
EXTT14=
EXTT15=
PLAYORDER=
